<svg fill="#000000" xmlns="http://www.w3.org/2000/svg"  viewBox="0 0 50 50" width="500px" height="500px"><path d="M35.818,5H14.182C9.119,5,5,9.119,5,14.182v21.637C5,40.881,9.119,45,14.182,45h21.637C40.881,45,45,40.881,45,35.818	V14.182C45,9.119,40.881,5,35.818,5z M36.652,35.946c-1.41-2.523-3.043-2.598-4.75-1.93s-3.563,1.633-6.605,1.781	c-8.684,0.52-12.23-4.989-14.234-7.735c7.867,4.824,12.379,2.094,14.457,1.426c-5.492-3.34-12.023-13.211-12.023-13.211	s7.645,6.012,10.02,7.645C22.18,22.586,18.336,17.375,17,15c1.855,2.152,10.078,8.774,12.305,10.258	c0.977-5.727-0.227-8.071-2.305-12.227c9.996,7.062,7.648,16.012,7.648,16.012C37.023,31.493,36.949,33.645,36.652,35.946z"/></svg>